<svg width="160" height="160" xmlns="http://www.w3.org/2000/svg" preserveAspectRatio="none">
 <g>
  <title>background</title>
  <rect x="-1" y="-1" width="162" height="162" id="canvas_background" fill="none"/>
 </g>

 <g>
  <title>Layer 1</title>
  <g id="shape_KBKNxyDojC" transform="translate(337.5831298828125,182.5029296875) scale(1) " display="inline">
   <g display="inline" id="svg_7">
    <rect fill="#0e6d62" width="165.5" height="165.5" x="-563" y="-165" id="svg_8"/>
    <g id="svg_17">
     <svg id="svg_3" x="-553" y="-155" width="145.5" height="145.5" viewBox="0 0 100 100" class="style-removed" preserveAspectRatio="none" xmlns:xlink="http://www.w3.org/1999/xlink">
      <clipPath id="svg_5" class="clipPath">
       <ellipse fill="#0e6d62" class="element" stroke="#dddddd" stroke-miterlimit="10" cx="50" cy="50" rx="50" ry="50" id="svg_16"/>
      </clipPath>
      <ellipse class="fill-color element" fill="#0e6d62" cx="50" cy="50" rx="49" ry="49" id="svg_11"/>
      <ellipse class="stroke-color element" fill="#0e6d62" stroke="#dddddd" stroke-width="0" stroke-miterlimit="10" cx="50" cy="50" rx="50" ry="50" clip-path="url(#svg_5)" id="svg_4"/>
     </svg>
    </g>
   </g>
  </g>
  <ellipse fill="#197a6f" stroke-width="1.5" cx="79.999997" cy="80" id="svg_18" rx="76.000001" ry="76.499994" stroke="#197a6f"/>
  <g id="shape_agfP22XA4d" transform="translate(205.30747985839844,57.44576644897461) scale(1) " display="inline">
   <g y="-158" x="-300" display="inline" id="svg_6">
    <svg width="386.76" height="419.76" viewBox="0 0 386.76 419.76" preserveAspectRatio="none" id="svg_19" x="-322" y="-185" xmlns:xlink="http://www.w3.org/1999/xlink">
     <rect fill="rgba(0,0,0,0)" width="124" height="157" x="131.38" y="131.38" id="svg_22" stroke-dasharray="5,2,2,2,2,2"/>
     <g id="svg_20">
      <path d="m140.69279,214.95001l0,0q0.27,-0.39 0.27,-0.13q0,0.25999 -0.13,0.66q-0.14,0.38999 -0.33,0.91999q-0.2,0.52001 -0.2,0.65l0,0q0.53,-0.52 0.85,-1.63999q0.33,-1.12 0.07,-2.03l0,0q0.39,0.38999 0.39,0.32q0,-0.06 0,-0.26q0,-0.2 0.07,-0.39q0.06,-0.2 0.59,-0.2l0,0q0,-0.26 -0.2,-0.39q-0.19,-0.14 -0.19,-0.4l0,0q0.13,-0.39 0.26,-0.26q0.13,0.13 0.26,-0.13l0,0q0,-0.13 0.26,-0.92l0,0q0.27,-0.4 0.46,-0.79q0.2,-0.39 0.2,-0.92l0,0q0.26,-0.66 0.66,-1.25q0.39,-0.59 0.66,-1.38l0,0q0.26,-0.65 0.39,-1.11q0.13,-0.46 0.39,-0.99l0,0q0.27,0 0.4,-0.26l0,0q0,-0.66 0.33,-1.19q0.32,-0.52 0.72,-1.05l0,0q0.26,-0.39 0.26,-0.59q0,-0.19 0.13,-0.46l0,0q0.13,-0.26 0.4,-0.26l0,0q0.26,-0.39 0.19,-0.79q-0.06,-0.39 0.2,-0.66l0,0l0.66,-0.65q0.26,-0.26 0.39,-0.86q0.13,-0.59 0.4,-1.11l0,0q2.76,-5.39 5.71,-10.71q2.96,-5.32 5.98,-10.84l0,0q0.13,-0.26 0.13,-0.46q0,-0.2 0.26,-0.46l0,0q0.13,-0.26 0.33,-0.39q0.2,-0.13 0.33,-0.4l0,0q0.26,-0.26 0.26,-0.59q0,-0.33 0.27,-0.59l0,0q0.13,-0.26 0.26,-0.39q0.13,-0.13 0.39,-0.4l0,0q0.66,-1.18 1.45,-2.69q0.79,-1.51 1.71,-2.96l0,0q0.26,0 0.26,-0.26l0,0l0.26,-0.26q0.26,-0.27 0.26,-0.27l0,0q0.14,-0.26 0.27,-0.32q0.13,-0.07 0.39,-0.33l0,0q0.26,-0.26 0.2,-0.66q-0.07,-0.39 0.2,-0.66l0,0q0.13,-0.39 0.65,-0.65l0,0q0.13,-0.27 0.26,-0.53q0.14,-0.26 0.4,-0.52l0,0q0.13,-0.14 0.2,-0.53q0.06,-0.39 0.32,-0.66l0,0q0.27,-0.26 0.6,-0.46q0.32,-0.19 0.46,-0.59l0,0q0.26,-0.26 0.26,-0.33001q0,-0.06 0.26,-0.31999l0,0q0,-0.14 0.13,-0.27001l0,0l0.13,0q0.66,-1.05 1.38,-2.1q0.73,-1.05 1.65,-1.84l0,0q0.65,-0.66 1.11,-0.84999q0.46,-0.2 1.25,-0.59001l0,0q0.13,0 0.13,-0.13999l0,0q0,-0.13 0.13,-0.26l0,0l0.27,-0.26q0.65,-0.26 1.05,-0.13q0.39,0.13 1.05,-0.13l0,0q0.26,0 1.18,-0.27q0.92,-0.26 1.58,0l0,0q0.65,0 0.59,0.73q-0.07,0.72 -0.07,1.38l0,0q0.66,-0.53 1.38,-1.06q0.72,-0.52 1.51,-0.39l0,0l0,0.13q0,0.13 0.13,0.26l0,0q0.79,0.13999 0.92,0.2q0.14,0.06999 0.92,0.33l0,0q0.53,0.66 0,2.1l0,0q0.66,0.13 0.92,-0.33001q0.27,-0.46 1.32,-0.19l0,0q1.05,0.65001 1.77,1.57q0.72,0.92 1.77,1.58001l0,0q0,0.53 -0.13,0.59q-0.13,0.06999 -0.39,0.06999q-0.26,0 -0.4,0q-0.13,0 -0.13,0.39l0,0q-0.26,0.13 -0.46,0.33q-0.19,0.2 -0.59,0.2l0,0q0.13,0.26 0.2,0.46q0.06,0.19 0.46,0.19l0,0q0.13,0.13 0.13,0.53q0,0.39 0.26,0.39l0,0q-0.26,0.66 -0.72,0.92q-0.46,0.27 -0.85,0.53l0,0q0,0.79 -0.53,1.05q-0.52,0.26 -0.13,1.05l0,0q0.53,0.66 0.98,-0.38999q0.46,-1.05001 1.38,-0.79l0,0q-0.78,1.18 -1.38,2.36q-0.59,1.19 -1.24,2.24l0,0q0.26,1.31 0.26,2.82q0,1.51 0,3.22l0,0l0,0.79q0.26,0.26 0.26,1.51q0,1.25 0.13,2.3l0,0q0.27,2.49 0.66,4.92q0.39,2.44 0.79,4.66999l0,0l0,0.39l0,0.27q0.26,0.26 0.26,0.78l0,0l0.26,1.06q0,0.13 0.14,0.06q0.13,-0.06 0.13,0.07l0,0q-0.13,0 -0.13,0.52001l0,0q0.13,0.12999 0.26,0.06999q0.13,-0.06999 0.13,0.06l0,0q0,0.13 -0.07,0.33001q-0.06,0.19999 -0.06,0.33l0,0q0.13,0.13 0.39,0.66q0.27,0.52 0.27,1.18l0,0l0,0.66l0.26,0q0,0.13 -0.13,0.39q-0.13,0.26 0,0.53l0,0q0.13,0.13 0.46,0.59q0.33,0.46 0.33,0.72l0,0q0,0.38999 0.19,0.85q0.2,0.46 0.46,0.46l0,0q-0.26,-3.02 -0.98,-5.78q-0.73,-2.76 -0.99,-5.91l0,0q0.53,1.05 0.66,2.04q0.13,0.97999 0.39,2.03l0,0q0.53,2.11 1.18,4.08l0,0q0.14,0.52 0.14,0.98q0,0.46 0.26,0.99l0,0q0,0.26 0.13,0.46q0.13,0.19 0.13,0.33l0,0q0.26,0.65 0.33,1.51q0.07,0.85 0.2,1.77l0,0q0.13,0.13 0.33,0.26q0.19,0.13 0.32,0.4l0,0q0,0.13 -0.13,0.39q-0.13,0.26 0,0.26l0,0l0.27,0q0.26,0.66 0.26,1.12q0,0.46 0.13,1.12l0,0q0.13,0.26 0.33,0.39q0.2,0.13 0.33,0.26l0,0q0.13,0.66 0.06,1.12q-0.06,0.46 0.2,1.12l0,0q0,0.26 0.2,0.38999q0.19,0.13 0.32,0.40001l0,0q0.14,0.38999 0.14,0.84999q0,0.46001 0.13,0.85l0,0q0.13,0.27001 0.33,0.53q0.19,0.26 0.32,0.26l0,0q0.14,0.4 0.07,0.59q-0.07,0.2 0.2,0.46l0,0q0,0.27001 0.19,0.46001q0.2,0.19999 0.2,0.33l0,0q0.13,0.4 0.07,0.59q-0.07,0.2 0.06,0.46l0,0l0.4,0.79q0.26,0.26 0.13,0.53q-0.13,0.26 0.13,0.52l0,0q0.26,0.53 0.66,0.92l0,0q0.13,0.26 0.33,1.05q0.19,0.79 0.59,1.45l0,0q0,0.13 0.39,0.52l0,0q0.26,0.27 0.2,0.59q-0.07,0.33 0.06,0.6l0,0q0.13,0.52 0.4,0.78q0.26,0.27 0.52,0.66l0,0q0.27,0.53 0.33,1.05q0.07,0.53 0.33,0.79l0,0q0.26,0.53 0.53,0.79q0.26,0.26 0.52,0.79l0,0q0.13,0.26 0.26,0.46q0.13,0.19 0.13,0.46l0,0q0.27,0.26 0.2,0.46q-0.06,0.19 0.07,0.46l0,0q0.26,0.39 1.05,1.44l0,0q0.26,0.4 0.39,0.79q0.13,0.39 0.27,0.66l0,0q0.52,0.78 1.05,1.51q0.52,0.72 1.05,1.51l0,0q0.39,0.79 0.79,1.57q0.39,0.78999 0.92,1.58l0,0q0.65,1.05 1.38,2.17q0.72,1.12 1.64,2.3l0,0q0.26,0.26 0.59,0.52q0.33,0.27 0.2,0.92l0,0q0.65,-0.26 0.59,-0.98q-0.07,-0.72 0.19,-1.38l0,0q0,-0.13 0.14,-0.13q0.13,0 0.26,-0.27l0,0q0.13,-0.65 0.2,-0.92q0.06,-0.26 0.19,-1.05l0,0q1.05,-3.41 2.5,-6.89q1.44,-3.49 2.63,-6.9l0,0q-0.53,0.39 -0.86,1.18q-0.33,0.79 -0.59,1.45l0,0q-0.26,0.65 -0.59,1.44q-0.33,0.79 -0.72,1.45l0,0q-0.4,0 -0.13,-0.53l0,0q0.13,-0.26 0.19,-0.46q0.07,-0.2 0.2,-0.59l0,0q0.13,-0.26 0.2,-0.53q0.06,-0.26 0.19,-0.52001l0,0q0.27,-0.53 0.4,-1.05l0,0q0.13,-0.26 0.2,-0.2q0.06,0.07 0.06,-0.06l0,0q0.39,-1.06 0.79,-2.04q0.39,-0.99 0.92,-1.90999l0,0q1.05,-2.62001 2.23,-5.05001q1.18,-2.43 2.63,-4.66999l0,0q0,-0.52001 0.39,-0.92l0,0q0.14,-0.26 0.33,-0.39q0.2,-0.13 0.33,-0.26l0,0q0.13,-0.27 0.13,-0.6q0,-0.32 0.13,-0.59l0,0q0.13,-0.13 0.33,-0.19q0.2,-0.07 0.33,-0.33l0,0q0.26,-0.4 0.39,-0.99q0.14,-0.59 0.4,-1.11l0,0q0.26,-0.14 0.46,-0.2q0.2,-0.07 0.46,-0.2l0,0q0,-0.79 0.13,-1.05l0,0q0.13,-0.26 0.39,-0.39q0.27,-0.14 0.4,-0.27l0,0q0.26,-0.92 0.39,-1.05l0,0q0.53,-0.79 1.05,-1.64q0.53,-0.85 1.05,-1.64l0,0q0.27,-0.27 0.33,-0.46q0.07,-0.2 0.33,-0.59l0,0q0.26,-0.27 0.26,-0.46q0,-0.2 0.27,-0.46l0,0q0.26,-0.27001 0.59,-0.66q0.33,-0.39 0.59,-0.66l0,0q0.26,-0.26 0.2,-0.46q-0.07,-0.19 0.19,-0.46l0,0q0.53,-0.52001 0.79,-0.65001l0,0q0.26,-0.4 0.46,-0.91999q0.2,-0.53 0.46,-0.79l0,0q0.4,-0.26 0.79,-0.53q0.39,-0.26 0.66,-0.65l0,0q0.26,-0.4 0.46,-0.86001q0.19,-0.46 0.46,-0.84999l0,0q0.26,-0.26 0.65,-0.59001q0.4,-0.33 0.66,-0.59l0,0q0.39,-0.4 0.72,-0.72999q0.33,-0.33001 0.59,-0.59l0,0q0.14,-0.13 0.07,-0.33001q-0.07,-0.19 0.07,-0.32l0,0q1.18,-1.06 2.49,-2.37q1.32,-1.31 2.63,-2.36l0,0q0.26,-0.14 0.39,-0.33q0.13,-0.2 0.27,-0.2l0,0q0.39,-0.39 0.78,-0.59q0.4,-0.2 0.79,-0.46l0,0q0.27,-0.26 0.72,-0.4q0.46,-0.13 0.99,-0.39l0,0q0.13,0 0.13,-0.13l0,0q0,-0.13 0.13,-0.26l0,0l0.27,-0.27q0.39,-0.26 0.98,-0.19q0.59,0.06 0.86,0.33l0,0q-0.27,0.78 -0.79,0.91q-0.53,0.14 -1.05,0.4l0,0q-1.19,1.18 -2.43,2.04q-1.25,0.85 -2.3,2.43l0,0q1.44,-0.53 2.49,-1.25q1.05,-0.72 2.24,-1.78l0,0q0.52,-0.65 0.98,-1.24q0.46,-0.6 0.99,-0.99l0,0q0.26,-0.13 0.46,0q0.19,0.13 0.19,0l0,0q0.27,-0.39 0.53,-0.52q0.26,-0.14 0.66,-0.53l0,0q1.05,-0.26 3.41,0l0,0q0.66,0 0.66,0.59q0,0.59 0.13,0.99l0,0q0.79,0 1.31,-0.27q0.53,-0.26 1.19,-0.13l0,0q0.39,0.53 1.11,0.86q0.73,0.32 1.51,0.85l0,0q0,0.53 0.2,0.79q0.2,0.26 0.07,0.92l0,0q1.7,0.13 2.1,1.25q0.39,1.11 1.44,1.9l0,0q-0.39,0.66 -0.85,0.85q-0.46,0.2 -0.72,0.73l0,0q-0.53,0.52 -0.79,0.98q-0.26,0.46 -0.79,0.99l0,0q-0.13,0.26 -0.2,0.13q-0.06,-0.13 -0.06,0.26l0,0q0,0.13 -0.2,0.27q-0.2,0.13 -0.2,0.26l0,0q0,0.13 -0.26,0.13l0,0q-0.13,0 -0.13,0.13l0,0q-0.13,0.26 -0.07,0.39q0.07,0.14 -0.06,0.4l0,0q-0.53,0.52 -0.99,0.85q-0.46,0.33 -0.72,0.73l0,0q-0.13,0 -0.39,0.65l0,0q-0.27,0.27 -0.79,0.92q-0.53,0.66 -1.05,1.32l0,0q0,0.13 -0.13,0.06q-0.14,-0.06 -0.14,0.2l0,0q0,0.39 -0.39,0.79l0,0q0,0.13 -0.26,0.13q-0.27,0 -0.27,0.13l0,0q-0.13,0.26 -0.06,0.33q0.06,0.06 -0.07,0.33l0,0q-0.13,0.13 -0.33,0.13q-0.19,0 -0.32,0.13l0,0l0,0.66q-0.14,0.26 -0.33,0.26q-0.2,0 -0.33,0.13l0,0q-0.26,0.26 -0.33,0.59q-0.06,0.33 -0.33,0.72l0,0q-0.13,0.27 -0.52,0.6q-0.4,0.32 -0.53,0.72l0,0q0,0.52 -0.72,1.18q-0.72,0.66 -0.99,1.31l0,0q-0.65,0.92 -1.31,1.97q-0.66,1.06 -1.18,1.98l0,0q-0.27,0.65 -0.4,0.65l0,0q-0.26,0.27 -0.39,0.53q-0.13,0.26 -0.4,0.52l0,0q0,0.4 -0.26,0.4l0,0q-0.26,0.26 -0.2,0.59q0.07,0.33 -0.19,0.72l0,0q-0.53,0 -0.53,0.26l0,0q-0.13,0.27 -0.06,0.4q0.06,0.13 -0.07,0.26l0,0q-0.26,0.4 -0.52,0.72q-0.27,0.33 -0.53,0.99l0,0q-0.39,0.39 -0.39,0.26l0,0q-0.14,0.4 -0.14,0.72q0,0.33 -0.26,0.6l0,0q-0.26,0.26 -0.46,0.32q-0.2,0.07 -0.2,0.33l0,0l0,0.79q-0.26,0.13 -0.39,0.13l0,0q-0.13,0 -0.26,0.13l0,0q-0.26,0.4 -0.26,0.73q0,0.32 -0.14,0.59l0,0q-0.26,0.26 -0.46,0.46q-0.19,0.19 -0.46,0.59l0,0q-0.13,0.26 -0.13,0.59q0,0.33 -0.26,0.59l0,0q-0.13,0.26 -0.13,0.13q0,-0.13 0,0.26l0,0q-0.26,0.79 -0.92,1.32l0,0q-0.13,0.13 -0.59,0.85q-0.46,0.73 -0.59,1.12l0,0q0,0.52 -0.27,0.79l0,0q-1.18,2.1 -2.3,4.33q-1.11,2.24 -2.16,4.6l0,0q-0.13,0.26 -0.2,0.59q-0.07,0.33 -0.33,0.73l0,0q0,0.13 -0.13,0.06q-0.13,-0.06 -0.13,0.07l0,0l0,0.52q-0.13,0.27 -0.26,0.66q-0.14,0.39 -0.4,1.05l0,0q-0.13,0.26 -0.26,0.33q-0.13,0.06 -0.13,0.2l0,0q-0.53,0.65 -0.86,1.9q-0.32,1.25 -0.85,2.69l0,0q0,0 -0.26,0.14l0,0q-0.13,0.39 -0.2,0.65q-0.07,0.27 -0.33,0.79l0,0q-0.79,1.58 -1.64,4.4q-0.85,2.83 -1.51,5.32l0,0q0,0.66 -0.07,1.19q-0.06,0.52 -0.06,0.91l0,0q0,0.4 0,0.99q0,0.59 0.13,1.25l0,0q0.13,0.92 0.66,1.77q0.52,0.86 0.65,2.17l0,0q-0.79,-0.13 -1.25,-0.59q-0.46,-0.46 -0.78,-1.05q-0.33,-0.59 -0.53,-1.25q-0.2,-0.66 -0.59,-1.05l0,0q-0.53,0 -0.26,0.52q0.26,0.53 0.39,0.53l0,0q0,0.66 0.33,1.12q0.33,0.46 0.59,0.85q0.26,0.39 0.39,0.79q0.14,0.39 -0.26,1.05l0,0q-0.66,0 -1.05,-0.2q-0.39,-0.19 -0.66,-0.39q-0.26,-0.2 -0.52,-0.33q-0.27,-0.13 -0.79,0l0,0q-0.66,0.66 -0.26,1.12q0.39,0.46 0.52,0.72l0,0q0.26,0.66 0.53,0.98q0.26,0.33 0.13,0.86001l0,0q-0.79,-0.53 -1.31,-1.38q-0.53,-0.86001 -0.92,-1.91001l0,0q-0.79,-0.26 -1.78,-0.51999q-0.98,-0.26 -1.64,-0.92001l0,0q-0.13,-0.13 -0.07,-0.26q0.07,-0.13999 -0.19,-0.13999l0,0q-0.27,0 -0.53,-0.13l0,0q-0.26,-0.13 -0.46,-0.19q-0.2,-0.07 -0.46,-0.2l0,0l0,-0.4q0,-0.13 -0.06,-0.19q-0.07,-0.07 -0.07,-0.2l0,0q-0.13,-0.13 -0.26,0q-0.13,0.13 -0.4,0l0,0q-0.26,-0.13 -0.32,-0.66q-0.07,-0.52 -0.33,-0.78l0,0q-0.13,-0.27 -0.33,-0.6q-0.2,-0.32 -0.33,-0.59l0,0q-0.13,-0.26 0,-0.85q0.13,-0.59 -0.13,-0.85l0,0q-0.26,-0.4 -0.53,-0.46q-0.26,-0.07 -0.65,-0.33l0,0q-0.53,0.38999 0.19,0.98q0.73,0.58999 0.33,1.51l0,0q-2.1,-1.57 -2.89,-4.2l0,0q-1.05,-0.53 -1.64,-1.18q-0.59,-0.66 -1.38,-1.19l0,0q-0.66,3.81 0.46,5.72q1.12,1.9 2.69,3.35l0,0q-0.39,1.05 -0.72,0.13q-0.33,-0.92 -0.59,-1.18l0,0q-0.66,0 -0.66,0l0,0q-0.26,0 -0.26,-0.33q0,-0.33 -0.26,-0.59l0,0q-0.27,-0.26 -0.46,-0.46q-0.2,-0.2 -0.2,-0.46l0,0q0,0 0,-0.26l0,0l0,-0.4q-0.26,-0.26 -0.33,-0.33q-0.06,-0.06 -0.06,-0.72l0,0q-0.14,-0.26 -0.33,-0.66q-0.2,-0.39 -0.2,-0.78l0,0q0,-0.92 0.2,-1.58q0.19,-0.66 0.19,-1.58l0,0q-0.26,-1.05 -0.85,-1.51q-0.59,-0.46 -1.25,-1.11l0,0q-0.13,-0.27 -0.06,-0.27q0.06,0 -0.2,-0.13l0,0q-0.26,0 -0.92,-0.92q-0.66,-0.92 -1.05,-1.44l0,0q0,0.13 -0.4,-0.27l0,0q0,-0.26 -0.39,-0.65q-0.39,-0.4 -0.66,-0.66l0,0q-0.39,-0.26 -0.72,-0.85q-0.33,-0.6 -0.59,-0.99l0,0q-0.13,-0.26 -0.39,-0.66q-0.27,-0.39 -0.66,-0.39l0,0q-0.13,0 -0.26,-0.13l0,0l-0.27,-0.26q-1.44,-2.5 -3.02,-4.6l0,0q-0.13,-0.13 -0.2,-0.4q-0.06,-0.26 -0.19,-0.39l0,0q-0.13,-0.13 -0.2,0q-0.07,0.13 -0.2,-0.13l0,0q-0.13,0 0.07,-0.2q0.2,-0.2 0.06,-0.33l0,0q-0.13,-0.26 -0.59,-0.46q-0.46,-0.2 -0.59,-0.46l0,0q0,-0.52 0,-0.52l0,0q-0.13,-0.27 -0.33,-0.46q-0.19,-0.2 -0.33,-0.46l0,0q-1.05,-1.45 -2.16,-3.22q-1.12,-1.78 -2.17,-3.48l0,0q-0.26,-0.66 -0.66,-1.05q-0.39,-0.4 -0.65,-0.92l0,0q0,-0.14 0.13,-0.33q0.13,-0.2 0,-0.33l0,0q-0.79,-1.18 -2.11,-3.29l0,0q-0.13,-0.26 -0.19,-0.19q-0.07,0.06 0.06,-0.33l0,0l-0.39,-0.79q0,0 -0.26,-0.13l0,0l-0.13,0q0,-0.26 0.13,-0.46q0.13,-0.2 0,-0.33l0,0q-0.13,-0.26 -0.4,-0.39q-0.26,-0.13 -0.39,-0.4l0,0q-0.13,-0.26 0,-0.46q0.13,-0.19 0.13,-0.33l0,0q-0.26,-0.26 -0.66,-0.26l0,0q-0.13,-0.13 0,-0.39q0.13,-0.27 0.13,-0.4l0,0q-0.13,-0.13 -0.32,-0.19q-0.2,-0.07 -0.2,-0.2l0,0q0,0 0,-0.4l0,0l0,-0.39q-0.26,0 -0.66,-0.39l0,0l0,-0.27q0,-0.13 0.13,-0.26l0,0l-0.39,-0.39q-0.13,-0.27 0,-0.46q0.13,-0.2 0,-0.33l0,0q0,-0.13 -0.26,-0.26q-0.27,-0.14 -0.27,-0.27l0,0q-0.26,-0.26 -0.13,-0.59q0.13,-0.33 -0.13,-0.59l0,0q0,-0.26 -0.07,-0.2q-0.06,0.07 -0.06,-0.32l0,0q0,-0.27 -0.33,-0.46q-0.33,-0.2 -0.33,-0.73l0,0q0,-0.13 -0.06,-0.59q-0.07,-0.46 -0.33,-0.72l0,0q0,-0.53 -0.4,-1.18l0,0q-0.26,-0.4 -0.52,-1.65q-0.26,-1.24 -0.53,-2.29l0,0q-0.13,-0.14 -0.13,-0.33q0,-0.2 -0.13,-0.33l0,0q0,-0.26 -0.39,-0.99q-0.4,-0.72 -0.27,-1.25l0,0q0,-0.26 -0.06,-0.91q-0.07,-0.66 -0.2,-1.06l0,0q-0.13,-0.26 -0.2,-0.19q-0.06,0.06 -0.06,-0.46l0,0q0,-0.13 -0.13,-0.66q-0.13,-0.53 -0.27,-1.05l0,0q-1.18,-4.73 -1.97,-10.38l0,0q-0.65,0.53 -0.92,1.38q-0.26,0.85 -0.78,1.64l0,0q-0.14,0.26 -0.33,0.33q-0.2,0.07 -0.33,0.2l0,0q-0.13,0.26 -0.07,0.52q0.07,0.27 -0.06,0.27l0,0q-0.13,0.13 -0.46,0.85q-0.33,0.72 -0.2,1.51l0,0q0,0.26 0.07,0.46q0.06,0.2 0.06,0.59l0,0q0,0.4 0.07,0.59q0.06,0.2 0.06,0.46l0,0q0,0.27 0.07,0.53q0.06,0.26 0.06,0.66l0,0q0,0.26 0.07,0.19q0.07,-0.06 0.2,0.07l0,0q0.26,1.05 0.39,2.23q0.13,1.18 0.4,2.1l0,0q0,0.13 0.26,0.33q0.26,0.2 0.26,0.46l0,0q0.13,0.26 0,0.4q-0.13,0.13 -0.13,0.39l0,0q0.13,0.26 0.2,0.13q0.06,-0.13 0.06,0.13l0,0q0.26,0.66 0.2,1.19q-0.07,0.52 0.2,0.91l0,0q0.13,0.27 0.13,0.53q0,0.26 0,0.53l0,0q0.13,0.26 0.26,0.46q0.13,0.19 0.13,0.32l0,0q0.26,0.4 0.2,0.6q-0.07,0.19 0.06,0.32l0,0q0.14,0.27 0.2,0.2q0.07,-0.06 0.07,0.33l0,0q0,0.13 -0.13,0.26l0,0q0.13,0.26 0.32,0.46q0.2,0.2 0.2,0.46l0,0q0.26,0.53 0.26,0.92q0,0.4 0.27,1.05l0,0q0,0.27 0.26,0.46q0.26,0.2 0.26,0.46l0,0q0.4,0.92 0.66,1.78q0.26,0.85 0.66,1.77l0,0q0.78,1.84 1.57,3.55q0.79,1.7 1.58,3.15l0,0q0.66,1.31 1.31,2.43q0.66,1.12 1.45,2.3l0,0q0.66,1.05 1.44,2.23q0.79,1.19 1.58,2.24l0,0q0.13,0.26 0.07,0.65q-0.07,0.4 0.06,0.53l0,0q0.13,0.26 0.26,0.13q0.14,-0.13 0.27,0l0,0q0.13,0.13 0,0.33q-0.13,0.2 0,0.2l0,0q0.26,0.39 0.52,0.72q0.27,0.33 0.53,0.59l0,0q1.97,3.15 4.07,5.98q2.1,2.82 4.07,5.32l0,0q-0.13,0.39 -0.19,0.2q-0.07,-0.2 -0.46,-0.2l0,0q-1.05,-1.45 -2.17,-2.7q-1.12,-1.24 -2.17,-2.56l0,0q-0.52,-0.79 -0.98,-1.64q-0.46,-0.85 -0.99,-1.51l0,0q-0.13,-0.26 -0.53,-0.66l0,0q-0.13,-0.26 -0.32,-0.13q-0.2,0.13 -0.33,0l0,0q0,-0.13 0.06,-0.33q0.07,-0.19 0.07,-0.46l0,0q-0.26,-0.26 -0.46,-0.19q-0.2,0.06 -0.46,-0.2l0,0q-0.79,-1.31 -1.84,-3.22q-1.05,-1.9 -1.97,-3.48l0,0q-0.39,-0.66 -0.85,-1.05q-0.46,-0.4 -0.86,-1.18l0,0q-0.13,-0.53 -0.52,-1.06q-0.4,-0.52 -0.66,-1.18l0,0q-0.13,-0.39 -0.33,-0.79q-0.2,-0.39 -0.46,-0.78l0,0q-0.26,-0.4 -0.46,-0.73q-0.2,-0.33 -0.46,-0.85l0,0q-0.26,-0.4 -0.39,-0.79q-0.13,-0.39 -0.4,-0.92l0,0q-0.26,-0.52 -1.05,-1.58l0,0q-0.13,-0.26 -0.06,-0.46q0.06,-0.19 -0.07,-0.59l0,0q0,-0.13 -0.13,-0.06q-0.13,0.06 -0.13,-0.2l0,0q0.13,-0.26 -0.07,-0.59q-0.19,-0.33 -0.33,-0.59l0,0q-0.13,-0.4 -0.26,-0.79q-0.13,-0.39 -0.39,-0.92l0,0q-0.27,-0.66 -0.4,-0.99q-0.13,-0.32 -0.26,-0.85l0,0q-0.26,-0.26 -0.2,-0.59q0.07,-0.33 -0.06,-0.59l0,0q-0.13,-0.13 -0.13,-0.2q0,-0.06 -0.14,-0.2l0,0l-0.26,-0.26l0,-0.39l0,-0.4q0,0 -0.13,0l0,0q0,-0.13 0,-0.46q0,-0.33 -0.13,-0.59l0,0q-0.13,-0.13 -0.33,-0.39q-0.2,-0.26 -0.33,-0.4l0,0q0,-1.44 -0.26,-2.1l0,0q0,-0.26 -0.13,-0.2q-0.13,0.07 -0.13,-0.19l0,0q0,-0.27 0.06,-0.33q0.07,-0.07 -0.06,-0.33l0,0q0,-0.66 -0.53,-0.66l0,0q0,-0.65 -0.13,-1.05q-0.13,-0.39 -0.26,-0.79l0,0q-0.4,-1.97 -0.79,-3.94q-0.4,-1.97 -0.66,-3.94l0,0q-0.66,0.13 -0.72,0.79q-0.07,0.66 -0.33,1.18l0,0q-0.13,0.13 -0.2,0.07q-0.06,-0.07 -0.19,0.33l0,0q-0.13,0.13 -0.13,0.26l0,0q-0.14,0.13 -0.14,0.39l0,0q-0.52,0.66 -0.98,1.78q-0.46,1.11 -0.99,2.16l0,0l-0.13,0q-0.13,0 -0.13,0.27l0,0q-0.39,1.05 -0.79,1.57l0,0q-0.26,0.27 -0.46,0.66q-0.19,0.4 -0.33,0.79l0,0l0,0.66q-0.13,0.13 -0.39,0.26q-0.26,0.13 -0.39,0.39l0,0q-0.14,0.4 -0.14,0.66q0,0.26 -0.13,0.66l0,0q-0.13,0.13 -0.19,0.13q-0.07,0 -0.2,0.26l0,0q-0.13,0.26 -0.07,0.26q0.07,0 -0.06,0.27l0,0q-0.13,0.26 -0.33,0.39q-0.2,0.13 -0.33,0.26l0,0l-0.39,1.19q-0.66,1.05 -0.99,2.16q-0.33,1.12 -0.98,2.17l0,0l-0.14,0q0,0 -0.13,0.13l0,0q-0.13,0.79 -0.65,1.45q-0.53,0.65 -0.79,1.71l0,0q-0.27,0.92 -0.73,1.7q-0.46,0.79 -0.98,1.84l0,0q0,0.13 -0.13,0.13q-0.13,0 -0.13,0.27l0,0q-0.27,1.05 -0.92,2.1q-0.66,1.05 -0.92,2.5l0,0q-0.66,-0.4 -0.2,-1.12q0.46,-0.72 0.59,-1.25l0,0q0.26,-0.52 0.46,-0.92q0.2,-0.39 0.46,-1.18l0,0q0.13,-0.66 0.4,-1.64q0.26,-0.99 0.78,-1.65l0,0q-1.18,0.79 -1.51,2.17q-0.33,1.38 -0.98,2.83l0,0q-0.13,0.13 -0.27,0.13q-0.13,0 -0.26,0.13l0,0q-0.13,0.66 -0.33,1.05q-0.19,0.39 -0.33,1.05l0,0q-0.26,0.4 -0.26,0.66q0,0.26 -0.26,0.66l0,0q-0.13,0.26 -0.26,1.18l0,0q-0.4,0.39 -0.53,0.92l0,0q-0.26,0.52 -0.39,0.92l0,0q-0.13,0.26 -0.2,0.26q-0.07,0 -0.2,0.13l0,0q-0.26,1.05 -0.52,2.17q-0.27,1.12 -0.79,2.17l0,0q-0.26,0.92 -0.66,1.7q-0.39,0.79 -0.65,1.84l0,0l0,0.53q-0.14,0.39 -0.6,1.58q-0.46,1.18 -0.72,2.23l0,0l0,0.66q-0.13,0.13 -0.13,0.26l0,0l-0.13,0q-1.05,3.02 -1.58,6.17q-0.52,3.16 -1.18,6.57l0,0q-0.53,1.05 0,1.32q0.53,0.26 0.92,0.52l0,0q0,0.66 -0.39,0.79q-0.4,0.13 -0.66,0.39l0,0q-0.4,0.79 -0.07,0.99q0.33,0.2 0.2,0.85l0,0q0.26,0.27 0.79,0.27q0.52,0 1.11,-0.13q0.6,-0.14 1.19,-0.14q0.59,0 0.98,0.4l0,0q-0.26,0.39 0,0.66q0.27,0.26 0,0.78l0,0q0.13,0.66 -0.52,0.86q-0.66,0.19 -1.05,0.33l0,0q-0.27,0.26 -0.53,0.13q-0.26,-0.13 -0.53,0.13l0,0q-0.26,0 -0.39,0.26q-0.13,0.26 -0.26,0.4l0,0q-0.26,0 -0.59,-0.07q-0.33,-0.07 -0.73,-0.07l0,0q-0.52,0 -1.64,0.07q-1.11,0.07 -2.03,-0.59l0,0q-0.4,0.39 0,1.18q0.39,0.79 0.78,1.05l0,0q0.27,0.26 0.46,0.2q0.2,-0.07 0.07,0.33l0,0q1.31,0 2.1,-0.33q0.79,-0.33 1.97,-0.33l0,0q-0.13,0.66 -0.72,0.79q-0.59,0.13 -1.25,0.39l0,0q-0.66,0.27 -1.38,0.33q-0.72,0.07 -1.38,-0.2l0,0q0,-0.52 -0.13,-0.52l0,0q-0.66,-0.13 -1.31,-1.45q-0.66,-1.31 -0.4,-2.36l0,0q-0.92,-1.05 -2.1,-1.45l0,0q-0.39,-0.39 -0.79,-0.85q-0.39,-0.46 -1.44,-0.46l0,0q-0.4,0.26 -0.2,0.33q0.2,0.06 0.59,0.06l0,0q-0.39,0.66 -1.18,0.33q-0.79,-0.33 -0.92,-0.85l0,0q-0.66,-0.26 -0.72,0.2q-0.07,0.46 -0.59,0.32l0,0q-0.27,0 -0.86,0.2q-0.59,0.2 -0.98,0.2l0,0q-0.79,0 -1.58,-0.07q-0.79,-0.06 -1.58,-0.46l0,0l0,-0.13q0,0 -0.26,-0.26l0,0q-0.52,0 -1.12,-1.45q-0.59,-1.44 -0.32,-2.62l0,0q0.13,0.39 0.39,1.18l0,0q0.13,0.79 0.92,1.31l0,0q0.13,0.26 0.26,0.53q0.13,0.26 0.26,0.39l0,0q1.06,0.66 2.37,0.52999q1.31,-0.13 2.63,-0.39999l0,0q0,-0.26 -0.2,-0.39q-0.2,-0.13 -0.33,-0.4l0,0q-0.13,-0.26 -0.66,-0.52l0,0q-0.65,-1.05 -1.31,-1.77q-0.66,-0.73 -1.31,-1.78l0,0q-0.92,-1.18 -1.32,-3.74q-0.39,-2.56 -0.13,-4.93l0,0q0,-1.31 0.13,-2.69q0.13,-1.38 0.4,-2.83l0,0q0.92,-5.78 2.69,-11.36q1.77,-5.59 3.22,-10.05l0,0q-0.53,0.39 -0.72,1.05q-0.2,0.66 -0.59,1.31l0,0l0,0.66q-0.4,0.26 -0.66,1.31q-0.26,1.05 -0.53,1.97l0,0q-0.65,1.84 -1.18,3.35q-0.52,1.52 -1.05,3.22l0,0q-1.05,3.29 -1.9,6.7q-0.86,3.42 -1.52,7.23l0,0q-0.39,-0.13 -0.32,-0.59q0.06,-0.46 0.19,-0.86001l0,0q0.53,-4.06999 1.65,-8.13999q1.11,-4.07 2.16,-7.49l0,0q0.27,-0.66 0.53,-1.18001q0.26,-0.53 0.52,-1.18l0,0l0,-0.66q0.27,-0.25999 0.53,-1.05q0.26,-0.79 0.52,-1.32l0,0l0,-0.78q0.27,-0.13999 0.6,-0.92q0.32,-0.78999 0.59,-1.44999l0,0q0.13,-0.13 0.06,-0.33001q-0.06,-0.19999 0.07,-0.19999l0,0q0.26,-0.26 0.39,-0.59q0.13,-0.32 0.4,-1.11001l0,0q0,-0.13 0.19,-0.13q0.2,0 0.2,-0.27l0,0q0,-0.92 0.26,-1.05l0,0.00001zm36.53,-30.74001l0,0q0.65,0.52001 0.72,-0.06999q0.07,-0.59001 0.33,-0.85l0,0q0.26,-0.26 0.33,-0.33001q0.06,-0.06 0.19,-0.33l0,0q0.14,0 0.07,-0.19q-0.07,-0.2 0.07,-0.33l0,0l0.13,0l0.13,0l0,-0.13q0,-0.14 0.06,-0.14q0.07,0 0.07,-0.13l0,0l0,-0.25999q0.13,-0.39 0.26,-0.46001q0.13,-0.06999 0.4,-0.33l0,0q0.39,-0.26 0.32,-0.79q-0.06,-0.52 0.46,-0.38999l0,0q0,-1.05001 -0.26,-1.05001l0,0q-0.79,1.44 -1.64,2.82q-0.85,1.38 -1.64,2.96zm7.09,-0.91999l0,0q0.26,-0.13 0.26,0.13q0,0.25999 0,0.59q0,0.33 0.07,0.4q0.07,0.06 0.33,-0.33001l0,0q-0.13,-0.65999 -0.2,-1.25q-0.06,-0.59 -0.2,-1.25l0,0q-0.13,-0.65999 0,-1.50999q0.14,-0.85 -0.65,-0.98l0,0q0,1.31 0.33,2.1q0.32,0.79 0.06,2.1zm-8.8,3.94l0,0q-0.13,0.38999 -0.33,0.72q-0.2,0.33 -0.46,0.72999l0,0q-0.39,0.39 -0.39,0.52001l0,0q-0.13,0.4 -0.33,0.78999q-0.2,0.39 -0.33,0.66l0,0l-0.26,0.26q-0.13,0.13 -0.13,0.26l0,0q-0.14,0.4 -0.33,0.79q-0.2,0.39 -0.33,0.66l0,0q-0.13,0.13 -0.33,0.26q-0.2,0.13 -0.2,0.26l0,0q0,0.4 -0.26,0.73q-0.26,0.32 -0.39,0.59l0,0q-0.27,0.52 -0.27,0.78l0,0q0,0.27 -0.13,0.2q-0.13,-0.06 -0.26,0.07l0,0q-0.39,0.65 -0.46,1.25q-0.07,0.59 -0.33,1.24l0,0q-0.39,0 -0.79,0.4l0,0q-0.26,0.39 -0.26,0.79q0,0.39 -0.26,0.78l0,0l-0.26,0.27q-0.14,0.13 -0.14,0.26l0,0q-0.26,0.26 -0.26,0.59q0,0.33 -0.26,0.72l0,0q-1.05,2.11 -2.1,4.14q-1.06,2.04 -2.11,4.27l0,0q-1.05,2.1 -1.97,4.21q-0.92,2.1 -1.84,4.33l0,0q-0.13,0.4 -0.32,0.66q-0.2,0.26 0.19,0.52l0,0q0.27,-0.65 0.46,-1.18q0.2,-0.52 0.46,-1.18l0,0q0,-0.13 0.2,-0.33q0.2,-0.2 0.33,-0.33l0,0q0.26,-0.26 0.26,-0.65q0,-0.4 0.26,-0.66l0,0q0.27,-0.53 0.4,-0.86q0.13,-0.32 0.39,-0.59l0,0q0.26,-0.52 0.59,-1.24q0.33,-0.73 0.46,-0.99l0,0l0,-0.39q0,-0.27 0.13,-0.27q0.14,0 0.14,-0.13l0,0q0.65,-1.05 1.11,-2.17q0.46,-1.11 0.99,-2.16l0,0q0,-0.14 0.26,-0.27q0.26,-0.13 0.26,-0.26l0,0q0.27,-0.52 0.27,-0.79q0,-0.26 0.13,-0.65l0,0q0.13,-0.14 0.33,-0.27q0.19,-0.13 0.19,-0.26l0,0q0.13,-0.39 0.2,-0.33q0.07,0.07 0.07,-0.2l0,0q0.26,-0.26 0.26,-0.59q0,-0.33 0.26,-0.59l0,0q1.05,-2.1 2.17,-4.14q1.12,-2.03 2.17,-4.13l0,0q0.26,-0.27 0.26,-0.53q0,-0.26 0.13,-0.53l0,0q0.26,-0.26 0.33,-0.26q0.06,0 0.06,-0.39l0,0q0,-0.27 0.14,-0.13q0.13,0.13 0.26,-0.14l0,0q0.26,-0.65 0.46,-1.24q0.2,-0.59 0.59,-1.12l0,0q0.26,-0.39 0.59,-0.92q0.33,-0.53 0.59,-1.18l0,0q0.27,-0.4 0.66,-1.05q0.39,-0.66 -0.13,-1.32l0,0q-0.13,0.79 -0.4,1.12q-0.26,0.33 -0.39,0.59l0,0.00001zm52.29,39.55l0,0q0.92,-2.37 1.84,-4.73q0.92,-2.37 1.97,-4.6l0,0q0.26,-0.66 0.52,-0.86q0.27,-0.19 0.4,-0.72l0,0q0,-0.26 0.13,-0.39l0,0q0.26,-0.53 0.53,-1.19q0.26,-0.65 0.39,-0.91l0,0q0,-0.27 0.13,-0.2q0.13,0.06 0.13,-0.07l0,0q0.53,-0.79 0.72,-1.57q0.2,-0.79 0.46,-1.06l0,0q0.27,-0.39 0.6,-0.98q0.32,-0.59 -0.2,-0.85l0,0q-0.13,0.92 -0.72,1.7q-0.59,0.79 -0.59,1.32l0,0q-0.14,0.39 -0.6,1.11q-0.46,0.73 -0.59,0.86l0,0q-0.39,0.65 -0.79,1.51q-0.39,0.85 -0.65,1.51l0,0q-0.13,0.26 -0.27,0.39q-0.13,0.14 -0.13,0.4l0,0q0,0.26 -0.19,0.2q-0.2,-0.07 -0.2,0.06l0,0q-0.13,0.39 -0.13,0.66q0,0.26 -0.27,0.52l0,0q-0.26,0.66 -0.52,1.32q-0.26,0.65 -0.53,1.05l0,0q-0.26,0.65 -0.46,1.11q-0.19,0.46 -0.32,0.73l0,0q-0.27,0.13 -0.33,0.26q-0.07,0.13 -0.2,0.26l0,0q-0.39,1.19 -0.66,1.71l0,0q-0.26,0.66 -0.39,1.18q-0.13,0.53 -0.4,0.79l0,0q-0.52,1.05 -0.98,2.43q-0.46,1.38 -0.99,2.7l0,0q-0.26,0.65 -0.59,1.18q-0.33,0.52 -0.59,1.05l0,0q-0.39,1.18 -0.85,2.43q-0.46,1.25 -0.72,1.9l0,0q-0.27,0.4 -0.27,0.73q0,0.33 -0.13,0.72l0,0q-0.26,0.66 -0.33,0.85q-0.06,0.2 -0.19,0.86l0,0q-0.27,0.26 -0.27,0.26l0,0l-0.13,0q-0.39,1.45 -0.52,2.89q-0.14,1.45 1.57,2.1l0,0q0.79,-5.78 2.56,-10.84q1.78,-5.05 3.75,-9.78zm-84.48,13.79l0,0q0,-0.79 0,-1.31q0,-0.53 0.13,-1.19l0,0q0.4,-0.39 0.4,-0.13l0,0q0.26,-1.44 0.59,-3.02q0.33,-1.57 0.85,-2.89l0,0q0.26,-1.44 0.59,-2.76q0.33,-1.31 0.73,-2.76l0,0q0.26,-0.79 0.32,-0.98q0.07,-0.2 0.2,-1.12l0,0q0,-0.26 0.13,-0.26l0,0l0.13,0q0.27,-0.66 0.4,-1.38q0.13,-0.72 0.39,-1.38l0,0q0,-0.26 0.07,-0.46q0.06,-0.2 0.06,-0.46l0,0q-0.26,0 -0.26,0.66l0,0q-2.1,4.86 -4.2,11.16q-2.11,6.31 -3.42,12.88l0,0q-0.13,1.05 -0.46,2.63q-0.33,1.57 0.07,2.23l0,0q0,0.13 -0.07,0.33q-0.06,0.2 -0.06,0.33l0,0q0.26,0.65 0.65,1.25q0.4,0.59 1.18,0.72l0,0q0.27,-3.16 0.79,-6.44q0.53,-3.28 0.79,-5.65zm7.75,6.44l0,0q0.27,-1.05001 0.4,-1.78q0.13,-0.72 0.26,-1.37l0,0q0.13,-0.27001 0.13,-0.73q0,-0.46 0.4,-0.59l0,0q0.26,-2.63 0.98,-4.6q0.72,-1.97 1.38,-4.2l0,0q0,-0.26 -0.13,-0.2q-0.13,0.07 -0.13,0.46l0,0q-1.45,3.42 -2.83,8.15q-1.38,4.73 -1.64,9.33l0,0q-0.13,0.39 -0.33,1.31q-0.2,0.92 0.59,1.18l0,0q0.13,-1.97 0.4,-3.94q0.26,-1.97 0.52,-3.02z" fill="rgb(255, 255, 255)" stroke="rgb(255, 255, 255)" stroke-linecap="square" stroke-linejoin="square" stroke-width="0.219" id="svg_21" stroke-dasharray="5,2,2,2,2,2"/>
     </g>
    </svg>
   </g>
  </g>
 </g>
</svg>